<svg xmlns="http://www.w3.org/2000/svg" viewBox="0 0 400 500" width="100%" height="100%">
  <defs>
    <linearGradient id="luxuryGold" x1="0%" y1="0%" x2="100%" y2="100%">
      <stop offset="0%" stop-color="#ebd2a9" />
      <stop offset="30%" stop-color="#cca462" />
      <stop offset="70%" stop-color="#91713b" />
      <stop offset="100%" stop-color="#cca462" />
    </linearGradient>

    <linearGradient id="fragranceJuice" x1="0%" y1="0%" x2="0%" y2="100%">
      <stop offset="0%" stop-color="#faf6ee" stop-opacity="0.9"/>
      <stop offset="60%" stop-color="#f3e6cf" stop-opacity="0.8"/>
      <stop offset="100%" stop-color="#e2cb9f" stop-opacity="0.9"/>
    </linearGradient>

    <radialGradient id="floorShadow" cx="50%" cy="50%" r="50%">
      <stop offset="0%" stop-color="#000000" stop-opacity="0.15" />
      <stop offset="100%" stop-color="#000000" stop-opacity="0" />
    </radialGradient>
    
    <filter id="softBlur" x="-20%" y="-20%" width="140%" height="140%">
      <feGaussianBlur stdDeviation="3" />
    </filter>
  </defs>

  <ellipse cx="200" cy="460" rx="110" ry="12" fill="url(#floorShadow)" />

  <rect x="112" y="240" width="176" height="195" rx="4" fill="url(#fragranceJuice)" />

  <line x1="200" y1="190" x2="200" y2="430" stroke="#cca462" stroke-width="1.5" stroke-opacity="0.4" stroke-dasharray="1 1" />

  <rect x="100" y="220" width="200" height="225" rx="8" fill="none" stroke="#111215" stroke-width="3" stroke-opacity="0.8" />
  <rect x="103" y="223" width="194" height="219" rx="6" fill="none" stroke="#ffffff" stroke-width="1.5" stroke-opacity="0.6" />

  <path d="M 140 220 L 170 190 L 230 190 L 260 220 Z" fill="none" stroke="#111215" stroke-width="2" stroke-opacity="0.5" />
  <rect x="175" y="170" width="50" height="20" fill="url(#luxuryGold)" rx="2" />
  <rect x="170" y="185" width="60" height="6" fill="#91713b" rx="1" />

  <rect x="155" y="90" width="90" height="80" rx="4" fill="url(#luxuryGold)" />
  <line x1="175" y1="95" x2="175" y2="165" stroke="#91713b" stroke-width="1.5" opacity="0.4" />
  <line x1="200" y1="95" x2="200" y2="165" stroke="#ffffff" stroke-width="2" opacity="0.3" />
  <line x1="225" y1="95" x2="225" y2="165" stroke="#91713b" stroke-width="1.5" opacity="0.4" />

  <rect x="125" y="275" width="150" height="110" fill="#111215" rx="2" box-shadow="0 4px 10px rgba(0,0,0,0.3)"/>
  <rect x="131" y="281" width="138" height="98" fill="none" stroke="url(#luxuryGold)" stroke-width="1" />
  
  <text x="200" y="315" font-family="'Playfair Display', 'Times New Roman', serif" font-size="14" fill="#cca462" letter-spacing="4" text-anchor="middle">ALTAGAMA</text>
  <text x="200" y="338" font-family="'Playfair Display', 'Times New Roman', serif" font-size="19" font-weight="bold" fill="#ffffff" letter-spacing="2" text-anchor="middle">AVANT-GARDE</text>
  <line x1="170" y1="352" x2="230" y2="352" stroke="#cca462" stroke-width="0.5" />
  <text x="200" y="366" font-family="sans-serif" font-size="7" fill="#a1a1a6" letter-spacing="3" text-anchor="middle">HAUTE PARFUMERIE</text>

  <path d="M 108 235 L 125 235 L 112 425 L 108 425 Z" fill="#ffffff" opacity="0.4" filter="url(#softBlur)" />
  <ellipse cx="250" cy="225" rx="15" ry="3" transform="rotate(-30, 250, 225)" fill="#ffffff" opacity="0.6" />
</svg>
